<?xml version="1.0" encoding="iso-8859-1"?>
<!-- Generator: Adobe Illustrator 19.0.0, SVG Export Plug-In . SVG Version: 6.00 Build 0)  -->
<svg version="1.1" id="Layer_1" xmlns="http://www.w3.org/2000/svg" xmlns:xlink="http://www.w3.org/1999/xlink" x="0px" y="0px"
	 viewBox="0 0 424 424" style="enable-background:new 0 0 424 424;" xml:space="preserve">
<path style="fill:#FF9900;" d="M247.2,160.8l7.2-14.4l-10.4-5.6c-2.4-1.6-4.8-1.6-7.2,0l-10.4,5.6l7.2,14.4l7.2-3.2L247.2,160.8z
	 M286.4,180l7.2-14.4l-20-9.6l-7.2,14.4L286.4,180z M206.4,156l-19.2,9.6l7.2,14.4l19.2-9.6L206.4,156z M167.2,175.2l-6.4,3.2
	L84,148l156-71.2L396,148l-76,31.2l-6.4-3.2l-4,8L240,211.2l-68.8-28L167.2,175.2z"/>
<path style="fill:#EE5656;" d="M396.8,235.2l-156.8,64l-156.8-64l77.6-39.2l76,31.2c0.8,0,2.4,0.8,3.2,0.8s2.4,0,3.2-0.8l76-31.2
	L396.8,235.2z"/>
<path style="fill:#2FB4C2;" d="M396.8,323.2l-156.8,64l-156.8-64l77.6-39.2l76,31.2c0.8,0,2.4,0.8,3.2,0.8s2.4,0,3.2-0.8l76-31.2
	L396.8,323.2z"/>
<g>
	<polygon style="fill:#42210B;" points="293.6,165.6 286.4,180 266.4,170.4 273.6,156 	"/>
	<path style="fill:#42210B;" d="M254.4,146.4l-7.2,14.4l-7.2-4l-7.2,3.2l-7.2-14.4L236,140c2.4-1.6,4.8-1.6,7.2,0L254.4,146.4z"/>
	<polygon style="fill:#42210B;" points="206.4,156 213.6,170.4 193.6,180 186.4,165.6 	"/>
	<path style="fill:#42210B;" d="M84,148l76,31.2l6.4-3.2l4,8l68.8,28l68.8-28l4-8l6.4,3.2l76-31.2L240,76.8L84,148z M83.2,323.2
		l156.8,64l156.8-64L319.2,284l-76,31.2c-0.8,0.8-2.4,0.8-3.2,0.8c-0.8,0-2.4,0-3.2-0.8l-76-31.2L83.2,323.2z M236.8,403.2l-176-72
		c-2.4-0.8-4.8-4-4.8-7.2s1.6-6.4,4.8-7.2l80.8-40.8l-80.8-32.8c-2.4-0.8-4.8-4-4.8-7.2s1.6-6.4,4.8-7.2l80.8-40.8l-80.8-32.8
		c-2.4-0.8-4.8-4-4.8-7.2s1.6-6.4,4.8-7.2l176-80c2.4-0.8,4.8-0.8,6.4,0l176,80c3.2,1.6,4.8,4,4.8,7.2s-2.4,6.4-4.8,7.2L338.4,188
		l80.8,40.8c2.4,1.6,4.8,4,4,7.2c0,3.2-2.4,5.6-4.8,7.2l-80,32.8l80.8,40.8c2.4,1.6,4.8,4,4,7.2c0,3.2-2.4,5.6-4.8,7.2l-176,72
		c0,0.8-1.6,0.8-2.4,0.8C239.2,404,237.6,404,236.8,403.2z M83.2,235.2l156.8,64l156.8-64L319.2,196l-76,31.2
		c-0.8,0.8-2.4,0.8-3.2,0.8c-0.8,0-2.4,0-3.2-0.8l-76-31.2L83.2,235.2z"/>
	<polygon style="fill:#42210B;" points="64,356 32,404 0,356 24,356 24,92 40,92 40,356 	"/>
	<rect x="24" y="52" style="fill:#42210B;" width="16" height="24"/>
	<rect x="24" y="20" style="fill:#42210B;" width="16" height="16"/>
</g>
<path style="fill:#1D9AAE;" d="M323.2,286.4l36.8,30.4c4,3.2,2.4,8.8-1.6,10.4l-116,43.2c-1.6,0.8-3.2,0.8-4,0l-116-43.2
	c-4.8-1.6-5.6-7.2-1.6-10.4l36.8-30.4L84,323.2l156.8,64l156.8-64L323.2,286.4z"/>
<path style="fill:#E94545;" d="M84,235.2l156,64l156-64l-72.8-36.8l36.8,30.4c4,3.2,2.4,8.8-1.6,10.4l-116,44.8
	c-1.6,0.8-3.2,0.8-4,0l-116-43.2c-4.8-1.6-5.6-7.2-1.6-10.4l36.8-30.4L84,235.2z"/>
<path style="fill:#FF7D00;" d="M308.8,183.2l4-8l6.4,3.2l76-31.2l-64-28.8l28,23.2c4,3.2,2.4,8.8-1.6,10.4l-71.2,26.4l0,1.6h-0.8
	l-43.2,16c-1.6,0.8-3.2,0.8-4,0l-43.2-16h-0.8l-0.8-0.8l-71.2-26.4c-4.8-1.6-5.6-7.2-1.6-10.4l28-23.2l-64,28.8l76,31.2l6.4-3.2l4,8
	l68.8,28L308.8,183.2z"/>
<g>
</g>
<g>
</g>
<g>
</g>
<g>
</g>
<g>
</g>
<g>
</g>
<g>
</g>
<g>
</g>
<g>
</g>
<g>
</g>
<g>
</g>
<g>
</g>
<g>
</g>
<g>
</g>
<g>
</g>
</svg>
